<?xml version="1.0" standalone="no"?>
<!DOCTYPE svg PUBLIC "-//W3C//DTD SVG 20010904//EN"
 "http://www.w3.org/TR/2001/REC-SVG-20010904/DTD/svg10.dtd">
<svg version="1.0" xmlns="http://www.w3.org/2000/svg"
 width="120.000000pt" height="120.000000pt" viewBox="0 0 120.000000 120.000000"
 preserveAspectRatio="xMidYMid meet">
<metadata>
Created by potrace 1.11, written by Peter Selinger 2001-2013
</metadata>
<g transform="translate(0.000000,120.000000) scale(0.100000,-0.100000)"
fill="#000000" stroke="none">
<path d="M10 600 l0 -600 595 0 595 0 0 600 0 600 -595 0 -595 0 0 -600z m438
333 c4 -10 7 -24 6 -30 -1 -7 -2 -29 -3 -48 -1 -33 -3 -35 -22 -25 -19 11 -19
13 -5 29 20 22 20 32 1 25 -17 -7 -21 11 -5 21 6 3 10 11 10 17 0 6 -11 1 -25
-12 -26 -24 -33 -14 -15 21 13 24 46 25 58 2z m-6 -198 c-5 -95 3 -122 39
-127 33 -5 38 6 9 22 -23 12 -26 39 -7 59 10 11 9 12 -2 6 -11 -6 -13 -4 -8 9
4 10 7 21 7 26 0 13 26 19 41 8 11 -8 10 -9 -3 -4 -21 6 -25 -23 -6 -41 6 -7
11 -26 12 -44 1 -34 26 -55 26 -22 0 21 30 53 67 72 30 15 43 14 43 -4 0 -13
4 -14 21 -5 18 10 25 6 56 -30 53 -62 117 -90 205 -90 46 0 67 -4 58 -9 -8 -5
-43 -8 -77 -7 -48 1 -59 -2 -51 -11 8 -10 6 -13 -5 -13 -8 0 -18 -10 -21 -22
-6 -21 -7 -21 -17 -5 -14 23 -67 50 -86 43 -9 -4 -22 -1 -29 5 -10 8 -14 8
-14 1 0 -6 7 -15 16 -20 11 -6 15 -18 12 -35 -3 -15 -1 -28 4 -29 10 -4 0 -38
-11 -38 -10 0 -34 62 -32 83 1 9 -4 24 -13 32 -18 18 -28 19 -24 3 5 -24 -24
-77 -51 -94 -14 -9 -23 -14 -19 -10 8 10 -11 66 -23 66 -5 0 -9 -7 -9 -15 0
-8 -10 -20 -22 -26 -18 -9 -24 -8 -34 6 -25 34 -41 11 -47 -67 -2 -40 -1 -74
3 -76 4 -2 3 -21 -2 -42 -8 -29 -16 -40 -30 -40 -15 0 -17 4 -10 17 5 10 12
49 16 86 4 37 9 81 13 98 l6 31 -67 -6 c-76 -7 -92 9 -18 19 26 3 54 7 62 8 8
1 16 10 18 20 3 12 -11 24 -50 42 -63 30 -156 33 -237 9 -59 -17 -91 -13 -46
7 37 16 50 18 152 25 46 3 80 10 77 15 -3 5 1 9 9 9 8 0 17 9 20 20 3 11 17
24 31 30 24 9 26 14 26 77 0 53 3 64 12 55 8 -8 12 -35 10 -77z m677 -145
c-22 -13 -103 -30 -93 -20 10 9 70 28 94 29 13 0 13 -1 -1 -9z m-302 -106 c-3
-3 -12 -4 -19 -1 -8 3 -5 6 6 6 11 1 17 -2 13 -5z"/>
<path d="M601 659 c-21 -34 -26 -105 -9 -115 7 -5 13 28 8 51 -2 11 29 35 47
35 7 0 13 -9 13 -20 0 -11 5 -20 11 -20 18 0 5 62 -16 74 -11 6 -23 15 -27 20
-3 5 -16 -6 -27 -25z"/>
<path d="M380 662 c0 -10 21 -32 31 -32 4 0 5 9 2 20 -5 19 -33 29 -33 12z"/>
<path d="M698 615 c2 -25 8 -42 13 -39 5 3 7 9 4 14 -3 4 4 6 15 3 28 -7 25 9
-8 40 l-27 26 3 -44z"/>
<path d="M542 574 c-17 -19 -12 -47 6 -35 8 4 12 17 10 29 -3 17 -5 18 -16 6z"/>
<path d="M460 562 c0 -12 23 -32 37 -32 7 0 13 7 13 16 0 8 -4 12 -10 9 -5 -3
-10 -1 -10 4 0 6 -7 11 -15 11 -8 0 -15 -4 -15 -8z"/>
<path d="M584 504 c3 -9 6 -18 6 -21 0 -3 7 0 15 7 17 14 11 30 -12 30 -10 0
-13 -6 -9 -16z"/>
</g>
</svg>
